<svg width="200" height="200" viewBox="0 0 200 200" fill="none" xmlns="http://www.w3.org/2000/svg">
<path d="M85.7793 1.03896C57.6624 5.12987 32.2728 21.2987 16.5585 45.1299C-4.35062 76.9481 -5.51945 116.948 13.6364 150.325C17.8572 157.727 21.4286 162.403 28.5715 169.74C44.1559 185.844 63.3767 195.714 85.7793 199.026C95.5845 200.519 110.455 200.065 120.13 198.052C159.74 189.74 189.805 159.61 198.377 119.481C199.805 112.662 200.39 95 199.351 87.4675C196.234 63.961 186.364 44.5455 169.221 28.0519C157.078 16.3636 142.273 7.85715 126.623 3.63637C113.377 0.0649261 98.8312 -0.844162 85.7793 1.03896ZM101.494 62.0779C101.623 104.481 101.753 113.636 102.533 114.481C103.312 115.455 105.325 115.584 119.805 115.584C133.766 115.584 136.299 115.714 136.623 116.558C136.818 117.078 137.013 131.818 137.013 149.351V181.104L135.584 182.078C133.961 183.117 123.766 186.558 120.325 187.208L118.182 187.597V163.961C118.182 141.104 118.117 140.195 116.883 138.961C115.649 137.727 114.74 137.662 99.026 137.662H82.4676V115V92.3377L84.8052 90.5844C91.4936 85.4545 91.3637 76.8831 84.4156 72.2078C79.8052 69.0909 71.8832 71.3636 69.1559 76.6234C66.7533 81.2987 68.5715 87.6623 73.1819 90.5844L75.2598 91.8831L75.3247 117.013V142.143L77.013 143.442C78.6364 144.74 79.5455 144.805 94.8702 144.805H111.039L111.104 165.714C111.169 186.753 111.169 188.377 110.649 188.896C110.455 189.091 106.494 189.221 101.753 189.221L93.1819 189.286L92.8572 178.052C92.5325 167.857 92.4026 166.688 91.2987 165.844C90.2598 165.13 85.4546 164.935 64.2208 164.935H38.4416L35 161.364C23.6364 149.61 15.5845 133.636 12.2728 116.558C10.8442 109.416 10.3896 97.4675 11.2338 89.4156L11.8182 84.4156H27.5974C41.3637 84.4156 43.4416 84.5455 43.7663 85.4545C43.9611 86.039 44.1559 96.4286 44.1559 108.571V130.649L40.6494 133.961C36.5585 137.857 35.7143 140.455 37.013 145.195C39.6754 154.61 53.1169 155.519 57.2078 146.493C58.6364 143.312 58.7663 140.974 57.5325 138.117C56.6884 136.039 52.4676 131.818 51.2987 131.818C50.9091 131.818 50.6494 122.013 50.6494 105.584C50.6494 82.013 50.5195 79.2857 49.5455 78.5065C48.7663 77.7922 44.6754 77.5325 31.2338 77.4026C21.7533 77.2727 13.8961 77.0779 13.7663 76.9481C13.3117 76.5584 15.6494 70.0649 18.5715 63.4416C26.4935 45.3247 42.5325 28.6364 60.6494 19.8052C66.3637 17.013 74.026 14.2208 74.8052 14.6753C75.065 14.8701 75.3247 23.3117 75.3247 33.4416V51.8831L68.3767 52.0779C58.6364 52.3377 57.4676 52.1429 56.6234 50.3247C55.5845 48.0519 51.6234 45.3896 48.7013 45C38.8312 43.6364 32.4676 55.6494 39.1559 62.8571C41.3637 65.1948 44.0909 66.3636 47.4026 66.3636C51.2987 66.3636 54.1559 64.8701 56.2338 61.6883L57.9871 59.0909H68.6364C74.7403 59.0909 79.8702 58.8312 80.5845 58.4416C81.7533 57.7922 81.8182 56.8182 81.8182 35.8441C81.8182 23.8312 82.078 13.5714 82.3377 13.1818C83.1169 11.8831 91.1689 10.6494 97.9221 10.7143H101.364L101.494 62.0779ZM119.481 12.7922C129.286 15 138.247 18.5714 146.948 23.8312L150.649 26.039V44.6753C150.649 60.5195 150.779 63.5714 151.688 64.8052C152.662 66.2338 152.922 66.2338 167.792 66.2338H182.987L183.636 67.987C185.13 72.013 188.312 83.2467 188.312 84.6753C188.312 84.8701 176.039 85.0649 161.039 85.0649H133.766V73.1818L133.831 61.3636L136.299 59.6753C142.078 55.6494 142.468 47.2078 137.078 42.6623C126.688 33.961 113.182 47.8571 122.143 58.1169C123.247 59.3506 124.675 60.5195 125.39 60.7143C126.558 61.1039 126.623 61.8182 126.623 75.3896C126.623 88.7662 126.688 89.6753 127.922 90.9091C129.156 92.1429 130.065 92.2078 159.416 92.2078H189.61V99.2857C189.61 103.182 189.416 107.273 189.221 108.377L188.831 110.39H177.273C166.623 110.39 165.649 110.519 164.026 111.753L162.338 113.052V138.961V164.805L160.26 166.429C159.091 167.338 157.533 168.571 156.818 169.221C154.026 171.883 144.87 177.922 143.831 177.922C143.636 177.922 143.507 162.922 143.507 144.61C143.507 124.87 143.247 110.974 142.857 110.39C142.338 109.61 139.416 109.351 125.52 109.091L108.766 108.766L108.571 60.7143C108.507 34.2857 108.571 12.2727 108.766 11.8182C109.091 10.8441 112.143 11.1688 119.481 12.7922ZM163.507 37.1429C170.844 44.5455 180.13 57.7273 178.896 58.961C178.312 59.6104 164.026 59.9351 160.584 59.4156L157.792 59.026V45.7143C157.792 38.4416 158.052 32.4675 158.312 32.4675C158.571 32.4675 160.909 34.6104 163.507 37.1429ZM133.961 47.4675C136.688 50.7792 134.351 55.8441 130.13 55.8441C127.078 55.8441 125.065 53.961 125.065 50.974C125.065 46.1039 130.844 43.7662 133.961 47.4675ZM50.065 51.3636C53.1819 52.987 52.8572 58.8312 49.6104 60.3247C47.1429 61.4286 45.5845 61.1688 43.8312 59.4156C41.8182 57.4675 41.7533 54.6753 43.5715 52.3377C45 50.5195 47.7273 50.0649 50.065 51.3636ZM81.7533 77.2727C82.4026 77.5974 83.3117 78.7662 83.7663 79.8052C84.7403 82.2078 83.6364 84.8701 80.9741 86.3636C79.3507 87.2727 79.026 87.2078 76.7533 86.039C74.6104 84.8701 74.3507 84.4156 74.1559 82.013C74.026 79.9351 74.2858 78.961 75.2598 77.987C76.6884 76.5584 79.8052 76.1688 81.7533 77.2727ZM187.338 119.87C185.844 127.922 180.26 141.104 175 149.026C169.026 157.922 169.481 158.896 169.481 136.818V117.532H178.636H187.792L187.338 119.87ZM51.2338 138.701C53.6364 141.753 52.7922 145.325 49.3507 146.753C47.7922 147.403 47.013 147.403 45.4546 146.753C42.013 145.325 41.1689 141.753 43.5715 138.701C45.4546 136.299 49.3507 136.299 51.2338 138.701ZM85.7143 180.195C85.7143 184.675 85.4546 188.312 85.1299 188.312C84.8052 188.312 81.1039 187.468 76.8832 186.364C71.1039 184.935 66.8832 183.312 60 179.87C55 177.338 50.1948 174.545 49.3507 173.701L47.8572 172.078H66.7533H85.7143V180.195Z" fill="#A8CE43"/>
</svg>
